# xmcd CD Database Entry
#
# Track frame offsets:
# 150
# 17165
# 34194
# 49740
# 68132
# 88907
# 104084
# 124355
# 140014
# 159443
# 183750
# 204405
# 221751
#
# Disc length: 3164 seconds
#
# Revision: 1
# Processed by: cddbd v1.4PL0 Copyright (c) Steve Scherf et al.
# Submitted via: tcd 2.0b
#
DISCID=c20c5a0d
DTITLE=MatchBox 20/Mad Season
DYEAR=1900
DGENRE=
TTITLE0=Angry
TTITLE1=Black and White People
TTITLE2=Crutch
TTITLE3=Beautiful Girl
TTITLE4=If You're Gone
TTITLE5=Mad Season
TTITLE6=Rest Stop
TTITLE7=The Burn
TTITLE8=Bent
TTITLE9=Bed of Lies
TTITLE10=Leave
TTITLE11=Stop
TTITLE12=You Won't Be Mine
EXTD=
EXTT0=
EXTT1=
EXTT2=
EXTT3=
EXTT4=
EXTT5=
EXTT6=
EXTT7=
EXTT8=
EXTT9=
EXTT10=
EXTT11=
EXTT12=
PLAYORDER=
